<mxfile host="app.diagrams.net" modified="2023-05-01T13:03:56.535Z" agent="Mozilla/5.0 (Windows NT 10.0; Win64; x64; rv:109.0) Gecko/20100101 Firefox/112.0" etag="8JBo29eJ6rTb_PuCXj_Y" version="21.1.5" type="device">
  <diagram name="Page-1" id="jLnL63d28ECAaQiL935l">
    <mxGraphModel dx="1434" dy="821" grid="1" gridSize="10" guides="1" tooltips="1" connect="1" arrows="1" fold="1" page="1" pageScale="1" pageWidth="1100" pageHeight="850" math="0" shadow="0">
      <root>
        <mxCell id="0" />
        <mxCell id="1" parent="0" />
        <mxCell id="pWWXd3AjgrICyKJDim29-2" value="User" style="rounded=0;whiteSpace=wrap;html=1;" parent="1" vertex="1">
          <mxGeometry x="40" y="225" width="140" height="70" as="geometry" />
        </mxCell>
        <mxCell id="MMDmdCO0N-zPLMwiTdqs-8" style="rounded=0;orthogonalLoop=1;jettySize=auto;html=1;exitX=0.5;exitY=0;exitDx=0;exitDy=0;entryX=0.5;entryY=1;entryDx=0;entryDy=0;endArrow=none;endFill=0;" parent="1" source="pWWXd3AjgrICyKJDim29-3" target="MMDmdCO0N-zPLMwiTdqs-7" edge="1">
          <mxGeometry relative="1" as="geometry" />
        </mxCell>
        <mxCell id="pWWXd3AjgrICyKJDim29-3" value="Song" style="rounded=0;whiteSpace=wrap;html=1;" parent="1" vertex="1">
          <mxGeometry x="590" y="225" width="140" height="70" as="geometry" />
        </mxCell>
        <mxCell id="pWWXd3AjgrICyKJDim29-4" value="Request Queue" style="rhombus;whiteSpace=wrap;html=1;" parent="1" vertex="1">
          <mxGeometry x="310" y="215" width="110" height="90" as="geometry" />
        </mxCell>
        <mxCell id="pWWXd3AjgrICyKJDim29-5" value="" style="endArrow=none;html=1;rounded=0;exitX=0;exitY=0.5;exitDx=0;exitDy=0;entryX=1;entryY=0.5;entryDx=0;entryDy=0;" parent="1" source="pWWXd3AjgrICyKJDim29-37" target="pWWXd3AjgrICyKJDim29-2" edge="1">
          <mxGeometry width="50" height="50" relative="1" as="geometry">
            <mxPoint x="440" y="150" as="sourcePoint" />
            <mxPoint x="490" y="100" as="targetPoint" />
          </mxGeometry>
        </mxCell>
        <mxCell id="pWWXd3AjgrICyKJDim29-6" value="" style="endArrow=none;html=1;rounded=0;exitX=1;exitY=0.5;exitDx=0;exitDy=0;entryX=0;entryY=0.5;entryDx=0;entryDy=0;" parent="1" source="pWWXd3AjgrICyKJDim29-38" target="pWWXd3AjgrICyKJDim29-3" edge="1">
          <mxGeometry width="50" height="50" relative="1" as="geometry">
            <mxPoint x="660" y="90" as="sourcePoint" />
            <mxPoint x="710" y="40" as="targetPoint" />
          </mxGeometry>
        </mxCell>
        <mxCell id="pWWXd3AjgrICyKJDim29-7" value="&lt;u&gt;UserID&lt;/u&gt;" style="ellipse;whiteSpace=wrap;html=1;" parent="1" vertex="1">
          <mxGeometry x="30" y="80" width="90" height="40" as="geometry" />
        </mxCell>
        <mxCell id="pWWXd3AjgrICyKJDim29-8" value="Name" style="ellipse;whiteSpace=wrap;html=1;" parent="1" vertex="1">
          <mxGeometry x="130" y="80" width="90" height="40" as="geometry" />
        </mxCell>
        <mxCell id="pWWXd3AjgrICyKJDim29-9" value="" style="endArrow=none;html=1;rounded=0;exitX=0.5;exitY=0;exitDx=0;exitDy=0;entryX=0.5;entryY=1;entryDx=0;entryDy=0;" parent="1" source="pWWXd3AjgrICyKJDim29-2" target="pWWXd3AjgrICyKJDim29-7" edge="1">
          <mxGeometry width="50" height="50" relative="1" as="geometry">
            <mxPoint x="440" y="60" as="sourcePoint" />
            <mxPoint x="490" y="10" as="targetPoint" />
          </mxGeometry>
        </mxCell>
        <mxCell id="pWWXd3AjgrICyKJDim29-10" value="" style="endArrow=none;html=1;rounded=0;exitX=0.75;exitY=0;exitDx=0;exitDy=0;entryX=0.5;entryY=1;entryDx=0;entryDy=0;" parent="1" source="pWWXd3AjgrICyKJDim29-2" target="pWWXd3AjgrICyKJDim29-8" edge="1">
          <mxGeometry width="50" height="50" relative="1" as="geometry">
            <mxPoint x="520" y="10" as="sourcePoint" />
            <mxPoint x="570" y="2" as="targetPoint" />
          </mxGeometry>
        </mxCell>
        <mxCell id="pWWXd3AjgrICyKJDim29-11" value="&lt;u&gt;SongID&lt;/u&gt;" style="ellipse;whiteSpace=wrap;html=1;" parent="1" vertex="1">
          <mxGeometry x="590" y="80" width="90" height="40" as="geometry" />
        </mxCell>
        <mxCell id="pWWXd3AjgrICyKJDim29-12" value="" style="endArrow=none;html=1;rounded=0;exitX=0.25;exitY=0;exitDx=0;exitDy=0;entryX=0.5;entryY=1;entryDx=0;entryDy=0;" parent="1" source="pWWXd3AjgrICyKJDim29-3" target="pWWXd3AjgrICyKJDim29-11" edge="1">
          <mxGeometry width="50" height="50" relative="1" as="geometry">
            <mxPoint x="660" y="210" as="sourcePoint" />
            <mxPoint x="710" y="160" as="targetPoint" />
          </mxGeometry>
        </mxCell>
        <mxCell id="pWWXd3AjgrICyKJDim29-13" value="&lt;u&gt;RequestID&lt;/u&gt;" style="ellipse;whiteSpace=wrap;html=1;" parent="1" vertex="1">
          <mxGeometry x="440" y="80" width="90" height="40" as="geometry" />
        </mxCell>
        <mxCell id="pWWXd3AjgrICyKJDim29-14" value="Queue type" style="ellipse;whiteSpace=wrap;html=1;" parent="1" vertex="1">
          <mxGeometry x="335" y="80" width="90" height="40" as="geometry" />
        </mxCell>
        <mxCell id="pWWXd3AjgrICyKJDim29-15" value="Played" style="ellipse;whiteSpace=wrap;html=1;" parent="1" vertex="1">
          <mxGeometry x="230" y="80" width="90" height="40" as="geometry" />
        </mxCell>
        <mxCell id="pWWXd3AjgrICyKJDim29-16" value="" style="endArrow=none;html=1;rounded=0;exitX=0.682;exitY=0.178;exitDx=0;exitDy=0;entryX=0.5;entryY=1;entryDx=0;entryDy=0;exitPerimeter=0;" parent="1" source="pWWXd3AjgrICyKJDim29-4" target="pWWXd3AjgrICyKJDim29-13" edge="1">
          <mxGeometry width="50" height="50" relative="1" as="geometry">
            <mxPoint x="440" y="190" as="sourcePoint" />
            <mxPoint x="490" y="140" as="targetPoint" />
          </mxGeometry>
        </mxCell>
        <mxCell id="pWWXd3AjgrICyKJDim29-18" value="" style="endArrow=none;html=1;rounded=0;entryX=0.5;entryY=1;entryDx=0;entryDy=0;exitX=0.5;exitY=0;exitDx=0;exitDy=0;" parent="1" source="pWWXd3AjgrICyKJDim29-4" target="pWWXd3AjgrICyKJDim29-14" edge="1">
          <mxGeometry width="50" height="50" relative="1" as="geometry">
            <mxPoint x="355" y="220" as="sourcePoint" />
            <mxPoint x="490" y="140" as="targetPoint" />
          </mxGeometry>
        </mxCell>
        <mxCell id="pWWXd3AjgrICyKJDim29-19" value="" style="endArrow=none;html=1;rounded=0;entryX=0.5;entryY=1;entryDx=0;entryDy=0;" parent="1" source="pWWXd3AjgrICyKJDim29-4" target="pWWXd3AjgrICyKJDim29-15" edge="1">
          <mxGeometry width="50" height="50" relative="1" as="geometry">
            <mxPoint x="350" y="220" as="sourcePoint" />
            <mxPoint x="490" y="140" as="targetPoint" />
          </mxGeometry>
        </mxCell>
        <mxCell id="pWWXd3AjgrICyKJDim29-20" value="SongVersions" style="rounded=0;whiteSpace=wrap;html=1;" parent="1" vertex="1">
          <mxGeometry x="500" y="580" width="140" height="70" as="geometry" />
        </mxCell>
        <mxCell id="pWWXd3AjgrICyKJDim29-21" value="Contributor" style="rounded=0;whiteSpace=wrap;html=1;" parent="1" vertex="1">
          <mxGeometry x="855" y="390" width="140" height="70" as="geometry" />
        </mxCell>
        <mxCell id="pWWXd3AjgrICyKJDim29-22" value="Has" style="rhombus;whiteSpace=wrap;html=1;" parent="1" vertex="1">
          <mxGeometry x="645" y="390" width="110" height="90" as="geometry" />
        </mxCell>
        <mxCell id="pWWXd3AjgrICyKJDim29-23" value="" style="endArrow=none;html=1;rounded=0;exitX=0.5;exitY=1;exitDx=0;exitDy=0;" parent="1" source="pWWXd3AjgrICyKJDim29-39" target="pWWXd3AjgrICyKJDim29-22" edge="1">
          <mxGeometry width="50" height="50" relative="1" as="geometry">
            <mxPoint x="660" y="320" as="sourcePoint" />
            <mxPoint x="710" y="270" as="targetPoint" />
          </mxGeometry>
        </mxCell>
        <mxCell id="pWWXd3AjgrICyKJDim29-24" value="" style="endArrow=none;html=1;rounded=0;entryX=0.5;entryY=0;entryDx=0;entryDy=0;exitX=0;exitY=1;exitDx=0;exitDy=0;" parent="1" source="pWWXd3AjgrICyKJDim29-40" target="pWWXd3AjgrICyKJDim29-20" edge="1">
          <mxGeometry width="50" height="50" relative="1" as="geometry">
            <mxPoint x="660" y="320" as="sourcePoint" />
            <mxPoint x="710" y="270" as="targetPoint" />
          </mxGeometry>
        </mxCell>
        <mxCell id="pWWXd3AjgrICyKJDim29-25" value="Contributes" style="rhombus;whiteSpace=wrap;html=1;" parent="1" vertex="1">
          <mxGeometry x="870" y="215" width="110" height="90" as="geometry" />
        </mxCell>
        <mxCell id="pWWXd3AjgrICyKJDim29-26" value="" style="endArrow=none;html=1;rounded=0;entryX=0;entryY=0.5;entryDx=0;entryDy=0;exitX=1;exitY=0.5;exitDx=0;exitDy=0;" parent="1" source="pWWXd3AjgrICyKJDim29-42" target="pWWXd3AjgrICyKJDim29-25" edge="1">
          <mxGeometry width="50" height="50" relative="1" as="geometry">
            <mxPoint x="865" y="240" as="sourcePoint" />
            <mxPoint x="790" y="150" as="targetPoint" />
          </mxGeometry>
        </mxCell>
        <mxCell id="pWWXd3AjgrICyKJDim29-27" value="" style="endArrow=none;html=1;rounded=0;entryX=0.5;entryY=1;entryDx=0;entryDy=0;exitX=0.5;exitY=0;exitDx=0;exitDy=0;" parent="1" source="pWWXd3AjgrICyKJDim29-41" target="pWWXd3AjgrICyKJDim29-25" edge="1">
          <mxGeometry width="50" height="50" relative="1" as="geometry">
            <mxPoint x="760" y="250" as="sourcePoint" />
            <mxPoint x="790" y="190" as="targetPoint" />
          </mxGeometry>
        </mxCell>
        <mxCell id="pWWXd3AjgrICyKJDim29-28" value="&lt;u&gt;VersionID&lt;/u&gt;" style="ellipse;whiteSpace=wrap;html=1;" parent="1" vertex="1">
          <mxGeometry x="380" y="495" width="90" height="40" as="geometry" />
        </mxCell>
        <mxCell id="pWWXd3AjgrICyKJDim29-29" value="&lt;u&gt;ContributorID&lt;/u&gt;" style="ellipse;whiteSpace=wrap;html=1;" parent="1" vertex="1">
          <mxGeometry x="830" y="495" width="90" height="40" as="geometry" />
        </mxCell>
        <mxCell id="pWWXd3AjgrICyKJDim29-31" value="" style="endArrow=none;html=1;rounded=0;entryX=0;entryY=0;entryDx=0;entryDy=0;exitX=0.5;exitY=1;exitDx=0;exitDy=0;" parent="1" source="pWWXd3AjgrICyKJDim29-28" target="pWWXd3AjgrICyKJDim29-20" edge="1">
          <mxGeometry width="50" height="50" relative="1" as="geometry">
            <mxPoint x="660" y="480" as="sourcePoint" />
            <mxPoint x="710" y="430" as="targetPoint" />
          </mxGeometry>
        </mxCell>
        <mxCell id="pWWXd3AjgrICyKJDim29-32" value="" style="endArrow=none;html=1;rounded=0;entryX=0.25;entryY=1;entryDx=0;entryDy=0;exitX=0.5;exitY=0;exitDx=0;exitDy=0;" parent="1" source="pWWXd3AjgrICyKJDim29-29" target="pWWXd3AjgrICyKJDim29-21" edge="1">
          <mxGeometry width="50" height="50" relative="1" as="geometry">
            <mxPoint x="770" y="380" as="sourcePoint" />
            <mxPoint x="820" y="330" as="targetPoint" />
          </mxGeometry>
        </mxCell>
        <mxCell id="pWWXd3AjgrICyKJDim29-33" value="Name" style="ellipse;whiteSpace=wrap;html=1;" parent="1" vertex="1">
          <mxGeometry x="940" y="495" width="90" height="40" as="geometry" />
        </mxCell>
        <mxCell id="pWWXd3AjgrICyKJDim29-34" value="" style="endArrow=none;html=1;rounded=0;entryX=0.75;entryY=1;entryDx=0;entryDy=0;exitX=0.5;exitY=0;exitDx=0;exitDy=0;" parent="1" source="pWWXd3AjgrICyKJDim29-33" target="pWWXd3AjgrICyKJDim29-21" edge="1">
          <mxGeometry width="50" height="50" relative="1" as="geometry">
            <mxPoint x="770" y="440" as="sourcePoint" />
            <mxPoint x="820" y="390" as="targetPoint" />
          </mxGeometry>
        </mxCell>
        <mxCell id="pWWXd3AjgrICyKJDim29-35" value="&lt;u&gt;Role&lt;/u&gt;" style="ellipse;whiteSpace=wrap;html=1;" parent="1" vertex="1">
          <mxGeometry x="930" y="140" width="90" height="40" as="geometry" />
        </mxCell>
        <mxCell id="pWWXd3AjgrICyKJDim29-36" value="" style="endArrow=none;html=1;rounded=0;entryX=0;entryY=1;entryDx=0;entryDy=0;exitX=0.5;exitY=0;exitDx=0;exitDy=0;" parent="1" source="pWWXd3AjgrICyKJDim29-25" target="pWWXd3AjgrICyKJDim29-35" edge="1">
          <mxGeometry width="50" height="50" relative="1" as="geometry">
            <mxPoint x="970" y="280" as="sourcePoint" />
            <mxPoint x="760" y="270" as="targetPoint" />
          </mxGeometry>
        </mxCell>
        <mxCell id="MMDmdCO0N-zPLMwiTdqs-1" value="" style="endArrow=none;html=1;rounded=0;exitX=0;exitY=0.5;exitDx=0;exitDy=0;entryX=1;entryY=0.5;entryDx=0;entryDy=0;" parent="1" source="pWWXd3AjgrICyKJDim29-4" target="pWWXd3AjgrICyKJDim29-37" edge="1">
          <mxGeometry width="50" height="50" relative="1" as="geometry">
            <mxPoint x="440" y="100" as="sourcePoint" />
            <mxPoint x="440" as="targetPoint" />
          </mxGeometry>
        </mxCell>
        <mxCell id="pWWXd3AjgrICyKJDim29-37" value="(1, n)" style="text;html=1;strokeColor=none;fillColor=none;align=center;verticalAlign=middle;whiteSpace=wrap;rounded=0;" parent="1" vertex="1">
          <mxGeometry x="210" y="245" width="60" height="30" as="geometry" />
        </mxCell>
        <mxCell id="MMDmdCO0N-zPLMwiTdqs-2" value="" style="endArrow=none;html=1;rounded=0;exitX=1;exitY=0.5;exitDx=0;exitDy=0;entryX=0;entryY=0.5;entryDx=0;entryDy=0;" parent="1" source="pWWXd3AjgrICyKJDim29-4" target="pWWXd3AjgrICyKJDim29-38" edge="1">
          <mxGeometry width="50" height="50" relative="1" as="geometry">
            <mxPoint x="440" y="190" as="sourcePoint" />
            <mxPoint x="440" y="290" as="targetPoint" />
          </mxGeometry>
        </mxCell>
        <mxCell id="pWWXd3AjgrICyKJDim29-38" value="(1, n)" style="text;html=1;strokeColor=none;fillColor=none;align=center;verticalAlign=middle;whiteSpace=wrap;rounded=0;" parent="1" vertex="1">
          <mxGeometry x="470" y="245" width="60" height="30" as="geometry" />
        </mxCell>
        <mxCell id="MMDmdCO0N-zPLMwiTdqs-3" value="" style="endArrow=none;html=1;rounded=0;entryX=0;entryY=0.5;entryDx=0;entryDy=0;exitX=1;exitY=0.5;exitDx=0;exitDy=0;" parent="1" source="pWWXd3AjgrICyKJDim29-3" target="pWWXd3AjgrICyKJDim29-42" edge="1">
          <mxGeometry width="50" height="50" relative="1" as="geometry">
            <mxPoint x="730" y="300" as="sourcePoint" />
            <mxPoint x="808" y="373" as="targetPoint" />
          </mxGeometry>
        </mxCell>
        <mxCell id="pWWXd3AjgrICyKJDim29-42" value="(1, n)" style="text;html=1;strokeColor=none;fillColor=none;align=center;verticalAlign=middle;whiteSpace=wrap;rounded=0;" parent="1" vertex="1">
          <mxGeometry x="770" y="245" width="60" height="30" as="geometry" />
        </mxCell>
        <mxCell id="MMDmdCO0N-zPLMwiTdqs-4" value="" style="endArrow=none;html=1;rounded=0;exitX=0.5;exitY=1;exitDx=0;exitDy=0;" parent="1" source="pWWXd3AjgrICyKJDim29-3" target="pWWXd3AjgrICyKJDim29-39" edge="1">
          <mxGeometry width="50" height="50" relative="1" as="geometry">
            <mxPoint x="660" y="310" as="sourcePoint" />
            <mxPoint x="528" y="369" as="targetPoint" />
          </mxGeometry>
        </mxCell>
        <mxCell id="pWWXd3AjgrICyKJDim29-39" value="(1, 1)" style="text;html=1;strokeColor=none;fillColor=none;align=center;verticalAlign=middle;whiteSpace=wrap;rounded=0;" parent="1" vertex="1">
          <mxGeometry x="645" y="335" width="60" height="30" as="geometry" />
        </mxCell>
        <mxCell id="MMDmdCO0N-zPLMwiTdqs-5" value="" style="endArrow=none;html=1;rounded=0;entryX=0.5;entryY=0;entryDx=0;entryDy=0;exitX=0;exitY=1;exitDx=0;exitDy=0;" parent="1" source="pWWXd3AjgrICyKJDim29-22" target="pWWXd3AjgrICyKJDim29-40" edge="1">
          <mxGeometry width="50" height="50" relative="1" as="geometry">
            <mxPoint x="478" y="418" as="sourcePoint" />
            <mxPoint x="420" y="490" as="targetPoint" />
          </mxGeometry>
        </mxCell>
        <mxCell id="pWWXd3AjgrICyKJDim29-40" value="(1, n)" style="text;html=1;strokeColor=none;fillColor=none;align=center;verticalAlign=middle;whiteSpace=wrap;rounded=0;" parent="1" vertex="1">
          <mxGeometry x="610" y="510" width="60" height="30" as="geometry" />
        </mxCell>
        <mxCell id="MMDmdCO0N-zPLMwiTdqs-17" style="rounded=0;orthogonalLoop=1;jettySize=auto;html=1;exitX=0.5;exitY=1;exitDx=0;exitDy=0;endArrow=none;endFill=0;" parent="1" source="pWWXd3AjgrICyKJDim29-41" target="pWWXd3AjgrICyKJDim29-21" edge="1">
          <mxGeometry relative="1" as="geometry" />
        </mxCell>
        <mxCell id="pWWXd3AjgrICyKJDim29-41" value="(1, n)" style="text;html=1;strokeColor=none;fillColor=none;align=center;verticalAlign=middle;whiteSpace=wrap;rounded=0;" parent="1" vertex="1">
          <mxGeometry x="895" y="330" width="60" height="30" as="geometry" />
        </mxCell>
        <mxCell id="MMDmdCO0N-zPLMwiTdqs-7" value="Title" style="ellipse;whiteSpace=wrap;html=1;" parent="1" vertex="1">
          <mxGeometry x="690" y="80" width="80" height="40" as="geometry" />
        </mxCell>
        <mxCell id="MMDmdCO0N-zPLMwiTdqs-13" style="rounded=0;orthogonalLoop=1;jettySize=auto;html=1;exitX=0.5;exitY=1;exitDx=0;exitDy=0;endArrow=none;endFill=0;entryX=0.75;entryY=0;entryDx=0;entryDy=0;" parent="1" source="MMDmdCO0N-zPLMwiTdqs-10" target="pWWXd3AjgrICyKJDim29-3" edge="1">
          <mxGeometry relative="1" as="geometry" />
        </mxCell>
        <mxCell id="MMDmdCO0N-zPLMwiTdqs-10" value="Band Name" style="ellipse;whiteSpace=wrap;html=1;" parent="1" vertex="1">
          <mxGeometry x="780" y="80" width="80" height="40" as="geometry" />
        </mxCell>
        <mxCell id="MMDmdCO0N-zPLMwiTdqs-15" value="" style="rounded=0;orthogonalLoop=1;jettySize=auto;html=1;endArrow=none;endFill=0;entryX=0.25;entryY=0;entryDx=0;entryDy=0;" parent="1" source="MMDmdCO0N-zPLMwiTdqs-14" target="pWWXd3AjgrICyKJDim29-20" edge="1">
          <mxGeometry relative="1" as="geometry" />
        </mxCell>
        <mxCell id="MMDmdCO0N-zPLMwiTdqs-14" value="Description" style="ellipse;whiteSpace=wrap;html=1;" parent="1" vertex="1">
          <mxGeometry x="480" y="495" width="80" height="40" as="geometry" />
        </mxCell>
        <mxCell id="ExJ6s1Ns2m31JPhLSBN5-2" style="rounded=0;orthogonalLoop=1;jettySize=auto;html=1;exitX=0.5;exitY=0;exitDx=0;exitDy=0;entryX=1;entryY=1;entryDx=0;entryDy=0;endArrow=none;endFill=0;" parent="1" source="ExJ6s1Ns2m31JPhLSBN5-1" target="pWWXd3AjgrICyKJDim29-4" edge="1">
          <mxGeometry relative="1" as="geometry" />
        </mxCell>
        <mxCell id="ExJ6s1Ns2m31JPhLSBN5-1" value="Time made" style="ellipse;whiteSpace=wrap;html=1;" parent="1" vertex="1">
          <mxGeometry x="470" y="360" width="80" height="40" as="geometry" />
        </mxCell>
        <mxCell id="ExJ6s1Ns2m31JPhLSBN5-11" style="edgeStyle=none;rounded=0;orthogonalLoop=1;jettySize=auto;html=1;exitX=0.5;exitY=0;exitDx=0;exitDy=0;entryX=0.618;entryY=0.911;entryDx=0;entryDy=0;endArrow=none;endFill=0;entryPerimeter=0;" parent="1" source="ExJ6s1Ns2m31JPhLSBN5-10" target="pWWXd3AjgrICyKJDim29-4" edge="1">
          <mxGeometry relative="1" as="geometry" />
        </mxCell>
        <mxCell id="ExJ6s1Ns2m31JPhLSBN5-10" value="Amount paid" style="ellipse;whiteSpace=wrap;html=1;" parent="1" vertex="1">
          <mxGeometry x="380" y="360" width="80" height="40" as="geometry" />
        </mxCell>
        <mxCell id="8-SLwf79AyAOCicBav4n-2" value="" style="rounded=0;orthogonalLoop=1;jettySize=auto;html=1;endArrow=none;endFill=0;" edge="1" parent="1" source="8-SLwf79AyAOCicBav4n-1" target="pWWXd3AjgrICyKJDim29-20">
          <mxGeometry relative="1" as="geometry" />
        </mxCell>
        <mxCell id="8-SLwf79AyAOCicBav4n-1" value="FileName" style="ellipse;whiteSpace=wrap;html=1;" vertex="1" parent="1">
          <mxGeometry x="340" y="590" width="80" height="40" as="geometry" />
        </mxCell>
        <mxCell id="8-SLwf79AyAOCicBav4n-5" style="rounded=0;orthogonalLoop=1;jettySize=auto;html=1;exitX=0.5;exitY=0;exitDx=0;exitDy=0;entryX=0;entryY=1;entryDx=0;entryDy=0;endArrow=none;endFill=0;" edge="1" parent="1" source="8-SLwf79AyAOCicBav4n-3" target="pWWXd3AjgrICyKJDim29-4">
          <mxGeometry relative="1" as="geometry" />
        </mxCell>
        <mxCell id="8-SLwf79AyAOCicBav4n-3" value="VersionID" style="ellipse;whiteSpace=wrap;html=1;" vertex="1" parent="1">
          <mxGeometry x="200" y="360" width="80" height="40" as="geometry" />
        </mxCell>
        <mxCell id="8-SLwf79AyAOCicBav4n-8" value="" style="rounded=0;orthogonalLoop=1;jettySize=auto;html=1;endArrow=none;endFill=0;" edge="1" parent="1" source="8-SLwf79AyAOCicBav4n-7" target="pWWXd3AjgrICyKJDim29-4">
          <mxGeometry relative="1" as="geometry" />
        </mxCell>
        <mxCell id="8-SLwf79AyAOCicBav4n-7" value="UserID" style="ellipse;whiteSpace=wrap;html=1;" vertex="1" parent="1">
          <mxGeometry x="290" y="360" width="80" height="40" as="geometry" />
        </mxCell>
      </root>
    </mxGraphModel>
  </diagram>
</mxfile>
